<?xml version="1.0" standalone="no"?>
<!DOCTYPE svg PUBLIC "-//W3C//DTD SVG 20010904//EN"
 "http://www.w3.org/TR/2001/REC-SVG-20010904/DTD/svg10.dtd">
<svg version="1.0" xmlns="http://www.w3.org/2000/svg"
 width="454.000000pt" height="454.000000pt" viewBox="0 0 454.000000 454.000000"
 preserveAspectRatio="xMidYMid meet">
<metadata>
Created by potrace 1.11, written by Peter Selinger 2001-2013
</metadata>
<g transform="translate(0.000000,454.000000) scale(0.100000,-0.100000)"
fill="#000000" stroke="none">
<path d="M0 2270 l0 -2270 2270 0 2270 0 0 2270 0 2270 -2270 0 -2270 0 0
-2270z m1638 1374 c40 -5 57 -12 72 -31 11 -14 20 -32 20 -40 0 -7 9 -39 20
-71 12 -31 26 -75 32 -97 8 -28 13 -281 17 -825 l6 -785 27 -52 c29 -55 68
-90 133 -119 36 -17 85 -19 540 -24 432 -5 507 -8 555 -23 30 -10 83 -25 118
-34 l62 -16 0 -133 0 -134 -39 0 c-22 0 -55 -9 -75 -21 -90 -53 -90 -53 -826
-57 -750 -4 -804 -1 -910 49 -34 16 -74 29 -89 29 -39 0 -58 26 -64 90 -4 30
-13 84 -21 120 -13 56 -16 197 -16 971 0 873 1 909 20 984 11 43 20 94 20 114
0 30 7 42 40 69 25 21 50 32 72 33 18 1 44 5 58 9 25 9 123 6 228 -6z"/>
</g>
</svg>
